#!OML:ASF F:\VICON\USERDATA\INSTALL\rory3\rory3.ASF
:FULLY-SPECIFIED
:DEGREES
3030
root 0.201495 17.4676 0.0209936 5.30011 4.23441 -1.33389
lowerback -1.52058 0.172141 -0.289281
upperback -3.17663 0.249873 0.955788
thorax -2.41073 0.14545 1.14106
lowerneck -17.0354 -11.9856 -15.4052
upperneck 25.2913 -17.349 15.0243
head 14.338 -7.39248 5.23746
rclavicle 8.1626e-015 1.40143e-014
rhumerus -36.5438 18.6013 -95.2439
rradius 24.2661
rwrist 16.3508
rhand 7.17888 11.2489
rfingers 7.12502
rthumb 32.4459 -15.8666
lclavicle 8.1626e-015 1.40143e-014
lhumerus -25.305 -2.02534 91.841
lradius 4.87279
lwrist -37.1126
lhand 5.86199 31.6092
lfingers 7.12502
lthumb 31.1918 58.9739
rfemur 0 0 0
rtibia 0
rfoot 0 0
rtoes 0
lfemur -6.1372 -20.2233 -16.7441
ltibia 15.16
lfoot -14.2452 14.0563
ltoes -16.0005
3031
root 0.204433 17.4667 0.0257231 5.27893 4.09555 -1.2392
lowerback -1.42997 0.158949 -0.335103
upperback -3.22405 0.232203 0.933234
thorax -2.51026 0.137911 1.14346
lowerneck -17.023 -11.9076 -15.2987
upperneck 25.481 -17.2514 14.8829
head 14.3677 -7.35426 5.1926
rclavicle -1.16196e-014 -1.13307e-014
rhumerus -37.5237 18.5022 -95.5543
rradius 24.4764
rwrist 15.2855
rhand 7.05447 11.2444
rfingers 7.12502
rthumb 32.3275 -15.8953
lclavicle -1.16196e-014 -1.13307e-014
lhumerus -26.0838 -1.7168 91.3118
lradius 5.27843
lwrist -35.4173
lhand 5.36877 31.7574
lfingers 7.12502
lthumb 30.7217 59.2116
rfemur 0 0 0
rtibia 0
rfoot 0 0
rtoes 0
lfemur -6.0039 -20.2064 -16.9053
ltibia 15.0783
lfoot -14.2132 14.1629
ltoes -15.8199
3032
root 0.206641 17.4663 0.0313451 5.35037 3.97486 -1.15475
lowerback -1.48762 0.144309 -0.389986
upperback -3.25185 0.212575 0.929631
thorax -2.50631 0.129463 1.17083
lowerneck -17.0773 -11.8691 -15.228
upperneck 25.7048 -17.1945 14.7302
head 14.4376 -7.33375 5.13742
rclavicle 1.16662e-014 1.67973e-014
rhumerus -38.3452 18.2696 -95.7121
rradius 24.6777
rwrist 14.2298
rhand 6.8035 11.2662
rfingers 7.12502
rthumb 32.0886 -15.9219
lclavicle 1.16662e-014 1.67973e-014
lhumerus -26.6638 -1.39187 90.8581
lradius 5.58588
lwrist -33.8282
lhand 4.37678 31.4444
lfingers 7.12502
lthumb 29.7754 59.0721
rfemur 0 0 0
rtibia 0
rfoot 0 0
rtoes 0
lfemur -5.98661 -20.1586 -17.0094
ltibia 14.9993
lfoot -14.1755 14.2067
ltoes -15.6826
3033
root 0.205159 17.4662 0.03792 5.37408 3.96543 -1.1208
lowerback -1.58516 0.129301 -0.376959
upperback -3.21323 0.191767 0.90772
thorax -2.41101 0.11791 1.14137
lowerneck -17.0896 -11.8723 -15.2004
upperneck 25.8538 -17.2188 14.6905
head 14.5022 -7.34272 5.11619
rclavicle 9.55098e-015 -1.56046e-014
rhumerus -39.001 17.7815 -95.7028
rradius 24.9864
rwrist 13.1056
rhand 6.67807 11.2469
rfingers 7.12502
rthumb 31.9692 -15.9653
lclavicle 9.55098e-015 -1.56046e-014
lhumerus -27.1376 -1.18925 90.4035
lradius 5.95378
lwrist -32.2725
lhand 3.57382 31.6111
lfingers 7.12502
lthumb 29.0087 59.3734
rfemur 0 0 0
rtibia 0
rfoot 0 0
rtoes 0
lfemur -5.95244 -20.2152 -17.026
ltibia 14.9295
lfoot -14.1724 14.2652
ltoes -15.9158
3034
root 0.203544 17.4659 0.0426977 5.31445 4.00084 -1.14664
lowerback -1.57274 0.0795317 -0.325338
upperback -3.15758 0.125417 0.933472
thorax -2.35903 0.0834265 1.13918
lowerneck -17.1097 -11.8558 -15.2299
upperneck 25.9746 -17.2053 14.6962
head 14.5613 -7.33616 5.13065
rclavicle 1.3977e-014 1.61016e-014
rhumerus -39.5799 17.3039 -95.6302
rradius 25.2956
rwrist 12.0453
rhand 6.48805 11.1816
rfingers 7.12502
rthumb 31.7883 -16.0666
lclavicle 1.3977e-014 1.61016e-014
lhumerus -27.5844 -0.89921 89.9765
lradius 6.25042
lwrist -30.9425
lhand 2.58521 31.8732
lfingers 7.12502
lthumb 28.0641 59.794
rfemur 0 0 0
rtibia 0
rfoot 0 0
rtoes 0
lfemur -5.86862 -20.3143 -17.002
ltibia 14.9182
lfoot -14.1923 14.3427
ltoes -16.2922
3035
root 0.202965 17.4652 0.0442299 5.30437 3.88629 -1.16918
lowerback -1.52671 0.0878778 -0.251113
upperback -3.16204 0.136181 0.909603
thorax -2.38941 0.0868511 1.07295
lowerneck -17.079 -11.8433 -15.2119
upperneck 26.1004 -17.2264 14.7145
head 14.615 -7.34113 5.13714
rclavicle 1.18339e-014 -2.5842e-015
rhumerus -40.1321 16.655 -95.5327
rradius 25.5942
rwrist 10.925
rhand 6.31399 11.114
rfingers 7.12502
rthumb 31.6225 -16.1669
lclavicle 1.18339e-014 -2.5842e-015
lhumerus -28.0597 -0.664703 89.5137
lradius 6.44561
lwrist -30.0115
lhand 1.63289 31.5115
lfingers 7.12502
lthumb 27.1534 59.5781
rfemur 0 0 0
rtibia 0
rfoot 0 0
rtoes 0
lfemur -5.83359 -20.2639 -16.9978
ltibia 14.9367
lfoot -14.2153 14.3936
ltoes -16.2494
3036
root 0.203299 17.4654 0.0465035 5.32816 3.73612 -1.23854
lowerback -1.50302 0.1022 -0.153805
upperback -3.16744 0.155712 0.92591
thorax -2.40845 0.0945954 1.03499
lowerneck -17.2148 -11.8495 -15.1724
upperneck 26.3234 -17.2462 14.6485
head 14.7342 -7.34211 5.10179
rclavicle -5.5815e-015 7.45443e-015
rhumerus -40.6647 16.0915 -95.4001
rradius 26.0112
rwrist 9.48218
rhand 5.33015 10.8768
rfingers 7.12502
rthumb 30.6848 -16.5842
lclavicle -5.5815e-015 7.45443e-015
lhumerus -28.5994 -0.392991 89.098
lradius 6.85658
lwrist -29.1439
lhand 0.917596 31.0308
lfingers 7.12502
lthumb 26.469 59.2023
rfemur 0 0 0
rtibia 0
rfoot 0 0
rtoes 0
lfemur -5.84605 -20.171 -16.9299
ltibia 14.9745
lfoot -14.2346 14.4268
ltoes -15.9553
3037
root 0.204192 17.4645 0.0476256 5.34201 3.68495 -1.20195
lowerback -1.41853 0.0851571 -0.153571
upperback -3.21611 0.133209 0.905774
thorax -2.50561 0.0834748 1.01427
lowerneck -17.2686 -11.8297 -15.1148
upperneck 26.5706 -17.2479 14.5798
head 14.8411 -7.33807 5.07128
rclavicle 1.07499e-014 -1.55052e-014
rhumerus -41.2787 15.6142 -95.3443
rradius 26.5538
rwrist 7.50819
rhand 3.71366 10.5783
rfingers 7.12502
rthumb 29.1423 -17.1609
lclavicle 1.07499e-014 -1.55052e-014
lhumerus -29.2151 -0.151768 88.6714
lradius 7.33629
lwrist -28.3811
lhand 0.25996 30.8419
lfingers 7.12502
lthumb 25.8393 59.1066
rfemur 0 0 0
rtibia 0
rfoot 0 0
rtoes 0
lfemur -5.84921 -20.1883 -16.9731
ltibia 14.9853
lfoot -14.2533 14.4897
ltoes -15.8687
3038
root 0.204617 17.4647 0.049546 5.37465 3.64188 -1.20309
lowerback -1.4198 0.0595644 -0.13094
upperback -3.24474 0.0991855 0.901124
thorax -2.53372 0.0660011 0.997116
lowerneck -17.2857 -11.7942 -15.0992
upperneck 26.7412 -17.2288 14.5816
head 14.9165 -7.32476 5.08084
rclavicle -5.33302e-015 7.7526e-015
rhumerus -41.7766 15.0657 -95.1965
rradius 27.095
rwrist 5.48752
rhand 2.26187 10.45
rfingers 7.12502
rthumb 27.755 -17.521
lclavicle -5.33302e-015 7.7526e-015
lhumerus -29.681 0.122779 88.2556
lradius 7.59918
lwrist -27.8236
lhand -0.562041 30.5468
lfingers 7.12502
lthumb 25.0519 58.9238
rfemur 0 0 0
rtibia 0
rfoot 0 0
rtoes 0
lfemur -5.87963 -20.209 -16.9697
ltibia 14.9871
lfoot -14.3719 14.4596
ltoes -15.1513
3039
root 0.203407 17.4639 0.0512706 5.39929 3.56412 -1.20105
lowerback -1.40053 0.0331402 -0.159405
upperback -3.27237 0.0645677 0.924964
thorax -2.57252 0.0499019 1.03787
lowerneck -17.3347 -11.7461 -15.1088
upperneck 26.9091 -17.1833 14.5994
head 14.9979 -7.29935 5.10642
rclavicle 3.17434e-015 1.25234e-014
rhumerus -42.1683 14.3775 -94.8751
rradius 27.6484
rwrist 3.74181
rhand 1.26571 10.3129
rfingers 7.12502
rthumb 26.8021 -17.808
lclavicle 3.17434e-015 1.25234e-014
lhumerus -30.1169 0.440151 87.8363
lradius 7.86905
lwrist -27.3274
lhand -1.38114 30.1138
lfingers 7.12502
lthumb 24.2668 58.598
rfemur 0 0 0
rtibia 0
rfoot 0 0
rtoes 0
lfemur -5.87799 -20.1964 -16.9811
ltibia 14.9744
lfoot -14.3835 14.6189
ltoes -15.711
3040
root 0.204054 17.4639 0.052185 5.40543 3.51261 -1.16952
lowerback -1.34803 0.000366308 -0.162048
upperback -3.30195 0.0207606 0.905867
thorax -2.63169 0.0280406 1.02021
lowerneck -17.3212 -11.6903 -15.0379
upperneck 27.0331 -17.1424 14.5886
head 15.0336 -7.27523 5.10642
rclavicle -5.84551e-015 1.20265e-014
rhumerus -42.5302 13.5516 -94.4802
rradius 28.2836
rwrist 2.38237
rhand 0.640981 10.5004
rfingers 7.12502
rthumb 26.2042 -17.7107
lclavicle -5.84551e-015 1.20265e-014
lhumerus -30.562 0.743858 87.4418
lradius 8.22516
lwrist -26.8815
lhand -1.96471 30.0474
lfingers 7.12502
lthumb 23.7072 58.6053
rfemur 0 0 0
rtibia 0
rfoot 0 0
rtoes 0
lfemur -5.82677 -20.214 -17.029
ltibia 14.9139
lfoot -14.3814 14.7278
ltoes -15.9459
3041
root 0.205525 17.4645 0.05186 5.39278 3.44128 -1.20403
lowerback -1.2645 -0.0258109 -0.0688446
upperback -3.3288 -0.0135899 0.895425
thorax -2.7057 0.00860224 0.957735
lowerneck -17.2631 -11.64 -14.952
upperneck 27.1129 -17.0973 14.5347
head 15.0308 -7.25594 5.08619
rclavicle 3.08737e-015 1.32192e-014
rhumerus -42.8721 12.6541 -93.9852
rradius 29.0388
rwrist 1.50129
rhand 0.448199 10.7248
rfingers 7.12502
rthumb 26.0196 -17.5136
lclavicle 3.08737e-015 1.32192e-014
lhumerus -30.9732 1.05394 87.0331
lradius 8.51358
lwrist -26.5933
lhand -2.31236 29.6908
lfingers 7.12502
lthumb 23.3738 58.2915
rfemur 0 0 0
rtibia 0
rfoot 0 0
rtoes 0
lfemur -5.75181 -20.2071 -17.0248
ltibia 14.8354
lfoot -14.2895 14.8062
ltoes -15.9915
3042
root 0.20554 17.4648 0.0524429 5.42475 3.34903 -1.12615
lowerback -1.28148 -0.0611369 -0.146915
upperback -3.31967 -0.0614886 0.886575
thorax -2.68584 -0.0135823 0.992884
lowerneck -17.2919 -11.62 -14.8844
upperneck 27.167 -17.077 14.4854
head 15.0432 -7.24403 5.06011
rclavicle 1.2393e-015 1.31198e-014
rhumerus -43.0968 11.9326 -93.4957
rradius 29.7891
rwrist 0.866108
rhand 0.218371 10.7909
rfingers 7.12502
rthumb 25.7995 -17.4796
lclavicle 1.2393e-015 1.31198e-014
lhumerus -31.2308 1.42731 86.6584
lradius 8.62151
lwrist -26.4762
lhand -2.95462 29.0499
lfingers 7.12502
lthumb 22.7575 57.7277
rfemur 0 0 0
rtibia 0
rfoot 0 0
rtoes 0
lfemur -5.71665 -20.188 -17.1208
ltibia 14.7512
lfoot -14.2767 14.9137
ltoes -15.8319
3043
root 0.203673 17.4651 0.0544763 5.45512 3.23488 -1.09016
lowerback -1.29247 -0.0986233 -0.250283
upperback -3.33918 -0.11075 0.940859
thorax -2.69872 -0.0347071 1.10715
lowerneck -17.3379 -11.6051 -14.9418
upperneck 27.3023 -17.0419 14.4492
head 15.1097 -7.23492 5.06631
rclavicle 2.70223e-016 -1.82882e-014
rhumerus -43.3338 11.3498 -93.0138
rradius 30.4614
rwrist 0.255706
rhand -0.0864045 10.8594
rfingers 7.12502
rthumb 25.5076 -17.4532
lclavicle 2.70223e-016 -1.82882e-014
lhumerus -31.5952 1.85783 86.346
lradius 8.85279
lwrist -26.351
lhand -3.57793 28.6667
lfingers 7.12502
lthumb 22.1592 57.4167
rfemur 0 0 0
rtibia 0
rfoot 0 0
rtoes 0
lfemur -5.67922 -20.142 -17.165
ltibia 14.6888
lfoot -14.321 15.017
ltoes -15.9946
3044
root 0.204981 17.4654 0.0568283 5.47048 3.1551 -1.06206
lowerback -1.30206 -0.161794 -0.294897
upperback -3.3441 -0.194495 0.979906
thorax -2.69643 -0.074888 1.17316
lowerneck -17.4288 -11.5491 -14.9108
upperneck 27.4467 -16.9572 14.3843
head 15.1667 -7.19674 5.05645
rclavicle 6.11884e-016 8.24956e-015
rhumerus -43.457 10.9477 -92.6438
rradius 30.9942
rwrist -0.347134
rhand -0.00799579 10.8494
rfingers 7.12502
rthumb 25.5827 -17.4525
lclavicle 6.11884e-016 8.24956e-015
lhumerus -31.9607 2.31102 85.9738
lradius 9.17617
lwrist -26.1866
lhand -3.89211 28.1188
lfingers 7.12502
lthumb 21.8576 56.9043
rfemur 0 0 0
rtibia 0
rfoot 0 0
rtoes 0
lfemur -5.6206 -20.1312 -17.2132
ltibia 14.6026
lfoot -14.3152 14.9908
ltoes -15.5127
3045
root 0.208128 17.465 0.0574482 5.47054 3.10749 -1.07374
lowerback -1.27472 -0.225481 -0.258334
upperback -3.37212 -0.278748 0.999152
thorax -2.73892 -0.117432 1.1736
lowerneck -17.4137 -11.4576 -14.8389
upperneck 27.5523 -16.8406 14.324
head 15.1722 -7.14693 5.05212
rclavicle 1.26849e-014 4.27387e-015
rhumerus -43.5846 10.4713 -92.3119
rradius 31.4583
rwrist -0.790731
rhand 0.285179 10.677
rfingers 7.12502
rthumb 25.8635 -17.5842
lclavicle 1.26849e-014 4.27387e-015
lhumerus -32.2943 2.74203 85.6231
lradius 9.23296
lwrist -26.1132
lhand -4.30071 26.8956
lfingers 7.12502
lthumb 21.4652 55.7263
rfemur 0 0 0
rtibia 0
rfoot 0 0
rtoes 0
lfemur -5.57498 -20.1493 -17.2243
ltibia 14.557
lfoot -14.3889 14.9619
ltoes -15.0257
